<svg width="14" height="17" viewBox="0 0 14 17" fill="none" xmlns="http://www.w3.org/2000/svg">
<path d="M0.159912 12.5404C1.19205 7.97347 3.39737 3.75465 6.55816 0.30042C6.61436 0.239276 6.68264 0.190464 6.75868 0.157075C6.83472 0.123686 6.91686 0.106445 6.99991 0.106445C7.08296 0.106445 7.1651 0.123686 7.24114 0.157075C7.31718 0.190464 7.38546 0.239276 7.44166 0.30042C7.56616 0.43542 7.66966 0.549419 7.75141 0.641669C10.7488 4.03307 12.8429 8.12543 13.8399 12.5404C12.2342 12.8787 10.5849 13.1007 8.90191 13.1959L7.33516 16.3294C7.30398 16.3916 7.25612 16.4439 7.19691 16.4805C7.1377 16.517 7.06949 16.5364 6.99991 16.5364C6.93033 16.5364 6.86212 16.517 6.80291 16.4805C6.74371 16.4439 6.69584 16.3916 6.66466 16.3294L5.09791 13.1959C3.43775 13.1021 1.78706 12.883 0.159912 12.5404ZM6.99991 10.2499C7.59665 10.2499 8.16895 10.0129 8.5909 9.59091C9.01286 9.16895 9.24991 8.59666 9.24991 7.99992C9.24991 7.40318 9.01286 6.83089 8.5909 6.40893C8.16895 5.98697 7.59665 5.74992 6.99991 5.74992C6.40317 5.74992 5.83088 5.98697 5.40892 6.40893C4.98696 6.83089 4.74991 7.40318 4.74991 7.99992C4.74991 8.59666 4.98696 9.16895 5.40892 9.59091C5.83088 10.0129 6.40317 10.2499 6.99991 10.2499Z" fill="#6E6B7B"/>
</svg>
